<svg width="126" height="76" viewBox="0 0 126 76" fill="none" xmlns="http://www.w3.org/2000/svg">
<path d="M126 0H0V76H126V0Z" fill="#05054B"/>
<path fill-rule="evenodd" clip-rule="evenodd" d="M27.4944 41.3922C35.2836 38.8932 37.1982 27.938 40.9136 22.4296C40.7912 24.0223 39.4711 31.3082 39.069 33.0944C38.3172 36.4382 37.9238 37.3093 36.6037 40.0547C36.1841 40.9259 36.6212 41.621 37.6965 41.2778C38.6231 40.9787 40.9485 39.254 41.4293 38.7436C43.7897 36.2622 43.8509 36.4734 45.8703 33.7808L49.7344 28.1756C49.2011 30.7978 46.3074 36.4646 49.1311 40.1427C51.2205 42.8617 54.3152 41.5242 56.4046 39.2012L58.2492 37.1509C59.578 40.0723 64.9806 40.3275 67.5158 37.5029C69.0194 41.0667 71.6071 39.2276 73.6702 37.5205C74.4308 38.682 75.1914 40.6003 78.1112 38.7788C78.662 38.4356 79.0466 37.9781 79.5187 37.7317C80.5853 39.3948 83.2953 40.4067 85.7169 38.9284C86.355 38.5412 87.0719 37.9165 87.5527 37.7141C88.1734 38.726 89.7994 39.7908 91.7227 39.65C93.611 39.5092 94.7038 38.1717 95.7965 37.4765C96.2336 38.5412 97.0904 39.518 98.6464 39.518C100.159 39.518 101.155 38.4796 101.907 37.9253C103.463 39.9491 104.539 40.1427 107.013 38.2333C108.009 37.4589 108.237 37.0805 109.032 36.1566C109.408 35.7166 109.592 35.4615 109.915 34.9951C110.16 34.6343 110.448 34.1152 110.737 33.7896V33.1384C109.443 31.6337 108.84 33.2176 108.158 34.3175C107.843 34.8191 106.235 36.6142 105.395 36.2798C105.273 35.9542 105.343 35.8398 105.395 35.6551C105.404 35.6287 105.579 35.2239 105.605 35.1711C105.78 34.7663 105.876 34.5023 106.042 34.1064C106.943 31.8977 107.957 30.6482 106.165 30.3314C104.766 30.0851 104.731 30.4106 103.953 30.7362C101.995 29.0731 99.9578 29.9619 98.288 31.2114C95.9014 32.9888 96.391 34.9511 94.695 35.6903C94.3803 34.2384 93.4973 32.6017 93.3487 31.2994C93.2001 29.9883 94.3191 29.9707 93.4187 29.2051C91.0321 27.1813 89.5459 33.0416 87.8762 34.1152C86.9408 34.7135 87.2205 35.2943 86.7135 35.6463C86.4862 35.1887 85.9354 33.42 85.7344 32.8393C84.7815 30.0499 85.7081 30.5514 85.7431 29.9443C85.4459 28.598 83.9335 28.5276 83.0855 29.4427C82.5173 30.0587 81.8878 31.3434 81.4245 32.1441C80.1569 34.3175 79.8159 33.9304 79.3876 34.4671C78.9417 35.0127 79.1428 35.3911 78.5571 35.8134C78.1899 36.0862 77.6042 36.5526 77.2632 36.183C76.9835 35.8838 77.1059 35.9102 77.543 34.9335C77.9626 33.9832 79.2215 31.4754 78.898 30.8594C78.4347 30.2082 76.7038 30.0587 76.118 30.4898C75.7596 30.7538 75.1826 32.2321 74.8854 32.8041C74.2909 33.9744 72.525 36.447 71.2749 36.3326C71.0738 34.9159 76.2492 25.3422 75.646 24.2863C75.1651 23.6967 73.6091 23.4679 72.9009 23.9607C72.3065 24.3743 71.9481 25.6326 71.6158 26.3717C70.8378 28.0788 70.1384 29.5923 69.3691 31.3522C68.1015 34.2648 68.9058 32.8393 67.3322 34.7575C65.8286 36.5966 62.2181 38.6116 61.8247 36.1126C64.3074 35.9366 67.1224 34.5991 67.6644 32.7689C68.5386 29.7947 63.7042 27.85 59.5517 31.9945C58.6163 32.9272 55.1107 38.6908 52.4531 38.4532C51.0194 34.4671 56.3434 21.2593 60.5658 17.2908C61.8859 16.0501 62.9874 16.2261 63.1098 15.5925C62.8475 13.9646 60.7319 14.6334 59.5605 15.0558C57.1564 15.9357 55.679 17.4492 53.948 18.9627C50.7834 21.7257 46.4298 28.6596 43.8072 32.2585C43.6498 32.4521 43.7023 32.3993 43.5362 32.5665C43.8684 30.9826 44.3055 29.6715 44.5415 27.938C44.9174 25.2102 45.1098 19.385 45.5119 17.722C46.019 15.6365 48.1433 15.6893 46.3686 14.5894C45.8966 14.299 45.1885 14.5806 44.7339 14.8006C43.3788 15.4517 41.9451 16.9036 41.0097 18.1091C38.3434 21.5585 37.985 22.2624 35.9218 26.5037C33.4915 31.4842 32.0578 37.4765 26.4891 38.4532C22.8349 39.0956 20.4658 37.7141 19.2943 35.2063C18.0005 32.4345 18.5075 29.3371 20.4658 27.0669C22.3104 24.9286 26.052 24.0927 27.6693 26.3717C29.0156 28.2724 28.3162 30.833 26.865 32.2761C26.4803 32.6545 25.746 33.112 25.4837 33.6224C25.6848 36.3238 29.5139 32.7865 29.8461 32.4081C34.6192 27.1021 28.3774 19.649 20.4745 23.9255C14.1365 27.3573 12.6503 37.7933 20.3696 40.9523C22.5289 41.8498 25.2302 42.1138 27.4944 41.3922ZM61.982 34.2999C62.4279 33.0328 63.4769 31.5457 65.0243 31.4842C65.0068 33.1648 63.5556 34.0184 61.982 34.2999ZM102.921 31.9241C103.192 33.3584 100.876 37.6525 99.6693 36.139C98.8825 35.1535 100.919 31.1586 102.921 31.9241ZM82.3074 34.1592C82.5085 33.816 82.9019 33.0064 83.2341 32.8305C83.3478 33.9304 83.4876 37.0717 82.0627 36.3678C81.5993 36.095 81.984 35.699 82.3074 35.3911C82.5085 35.1975 82.7795 35.1271 82.8145 34.8455C82.762 34.6343 82.6834 34.5551 82.5522 34.4935C82.4386 34.4319 82.3424 34.3351 82.3074 34.1592ZM78.3123 26.0638C75.7246 26.7237 77.1059 30.0939 79.475 29.6275C81.8703 29.1523 80.6989 25.4566 78.3123 26.0638ZM62.7426 19.957C63.0311 19.7458 63.3371 19.561 63.643 19.3938C64.7533 18.7779 65.9859 18.3467 67.2186 18.0475C69.2205 17.5636 71.3186 17.4228 73.3818 17.4932C77.4468 17.634 81.3633 18.5051 85.1224 19.9922C86.3813 20.4938 87.6314 20.9953 88.899 21.4793C91.9762 22.6496 95.1496 23.6967 98.3929 24.2863C101.715 24.8934 105.29 25.043 108.543 24.0223C108.831 23.9255 109.557 23.5295 109.723 23.8287C109.784 23.9431 109.758 24.0751 109.653 24.1543C107.686 25.615 105.247 26.2397 102.843 26.4421C101.523 26.5565 100.185 26.5389 98.865 26.4509C97.4925 26.3541 96.12 26.1781 94.7649 25.9494C92.256 25.5182 89.7645 24.911 87.3167 24.2247C86.2414 23.9255 85.1661 23.6087 84.0908 23.292C83.1991 23.028 82.3162 22.764 81.4245 22.5088C76.1792 21.0305 70.8203 21.2505 65.7674 23.3095C64.2288 23.9343 62.7339 24.7262 61.3526 25.6678C60.9942 25.9142 59.9976 26.7677 59.7004 26.9085C58.9573 27.3837 61.7722 20.6521 62.7426 19.957ZM90.324 34.1592C90.6037 33.7192 90.8922 33.0768 91.2681 32.8041C91.7577 38.1013 89.0738 36.4734 90.2715 35.4351C90.6474 35.1095 90.831 35.1975 90.8485 34.8455C90.7785 34.4055 90.5512 34.4671 90.324 34.1592Z" fill="white"/>
<path d="M52.4003 48.5108C52.4003 48.7044 52.4352 48.8804 52.5139 49.0388C52.5838 49.1972 52.68 49.3292 52.7937 49.4348C52.9073 49.5491 53.0384 49.6283 53.187 49.6811C53.3357 49.7339 53.493 49.7603 53.6591 49.7603C53.9913 49.7603 54.2798 49.6459 54.5246 49.426C54.7694 49.206 54.8918 48.898 54.8918 48.502C54.8918 48.1149 54.7694 47.8157 54.5246 47.5957C54.2798 47.3757 53.9913 47.2701 53.6591 47.2701C53.493 47.2701 53.3357 47.2965 53.187 47.3493C53.0384 47.4021 52.9073 47.4813 52.7937 47.5869C52.68 47.6925 52.5838 47.8245 52.5139 47.9741C52.4352 48.1501 52.4003 48.3172 52.4003 48.5108ZM56.4129 45.5542C56.5003 45.5542 56.579 45.5806 56.6402 45.6422C56.7014 45.7038 56.7276 45.783 56.7276 45.8798V51.1682C56.7276 51.2474 56.7014 51.3266 56.6402 51.3882C56.579 51.4498 56.509 51.485 56.4129 51.485H55.224C55.1365 51.485 55.0666 51.4674 55.0141 51.4322C54.9792 51.4146 54.9267 51.4058 54.8743 51.4146C54.8131 51.4234 54.7344 51.441 54.6208 51.4674C54.4634 51.5114 54.306 51.5466 54.1487 51.573C53.9913 51.5994 53.8252 51.6082 53.6591 51.6082C53.2395 51.6082 52.8374 51.529 52.4702 51.3794C52.0943 51.2298 51.7708 51.0186 51.4911 50.7459C51.2113 50.4731 50.9928 50.1475 50.8267 49.7691C50.6606 49.3908 50.5819 48.9684 50.5819 48.502C50.5819 48.0533 50.6606 47.6309 50.8267 47.2525C50.9928 46.8741 51.2113 46.5398 51.4911 46.2758C51.7708 46.003 52.0943 45.7918 52.4702 45.6422C52.8461 45.4926 53.2395 45.4135 53.6591 45.4135C53.9826 45.4135 54.2973 45.4662 54.6208 45.563C54.7344 45.5894 54.8131 45.607 54.8743 45.6158C54.9355 45.6246 54.9792 45.6246 55.0141 45.5982C55.0579 45.563 55.1278 45.5454 55.224 45.5454H56.4129V45.5542ZM45.7038 47.0061C45.7038 47.0765 45.7213 47.1381 45.7475 47.1909C45.7825 47.2437 45.8262 47.2349 45.8874 47.1733C45.8874 47.1733 45.8874 47.1645 45.8961 47.1557C45.9049 47.1381 45.9398 47.0853 46.0098 46.9973C46.0797 46.9093 46.1846 46.7598 46.3332 46.5662C46.4818 46.3726 46.6917 46.091 46.9627 45.7302C47.0064 45.6598 47.0588 45.607 47.1025 45.5894C47.155 45.5718 47.1987 45.563 47.2424 45.563H48.9559C49.0345 45.563 49.1045 45.5982 49.1569 45.6686C49.2094 45.739 49.2006 45.8094 49.1394 45.8974L47.7582 47.7717C47.732 47.8069 47.7232 47.8509 47.7407 47.8861C47.7582 47.9301 47.7844 47.9653 47.8106 48.0005L50.1535 51.177C50.206 51.2562 50.2147 51.3354 50.1623 51.397C50.1098 51.4586 50.0399 51.4938 49.9525 51.4938H48.2565C48.1778 51.4938 48.1079 51.4674 48.0554 51.4146C48.003 51.3618 47.9418 51.2826 47.8718 51.177L46.6829 49.5756C46.5955 49.4612 46.5081 49.4524 46.4381 49.5491L45.7912 50.4291C45.765 50.4731 45.7475 50.5347 45.7388 50.6051C45.73 50.6755 45.7213 50.7547 45.7213 50.8427V51.177C45.7213 51.2562 45.6951 51.3354 45.6339 51.397C45.5727 51.4586 45.5027 51.4938 45.4066 51.4938H44.2002C44.1127 51.4938 44.0341 51.4586 43.9729 51.397C43.9117 51.3354 43.8854 51.2562 43.8854 51.177V45.8886C43.8854 45.783 43.9117 45.7038 43.9729 45.651C44.0341 45.5894 44.104 45.563 44.2002 45.563H45.4066C45.494 45.563 45.5727 45.5894 45.6339 45.651C45.6951 45.7126 45.7213 45.7918 45.7213 45.8886V47.0061H45.7038ZM40.6334 47.4725C40.747 47.4725 40.7645 47.4285 40.7033 47.3493C40.5372 47.1733 40.2924 47.0853 39.9602 47.0853C39.8116 47.0853 39.6892 47.1029 39.5756 47.1381C39.4619 47.1733 39.3745 47.2173 39.3046 47.2789C39.2346 47.3317 39.1997 47.3757 39.2084 47.4197C39.2172 47.4549 39.2696 47.4725 39.3745 47.4725H40.6334ZM37.0141 48.5108C37.0141 48.1149 37.0841 47.7277 37.2327 47.3581C37.3813 46.9885 37.5824 46.6542 37.8446 46.3726C38.1069 46.091 38.4129 45.8622 38.7713 45.695C39.1297 45.5278 39.5144 45.4487 39.934 45.4487C40.3361 45.4487 40.7121 45.5278 41.0705 45.6862C41.4289 45.8446 41.7349 46.0646 41.9971 46.3374C42.2594 46.619 42.4605 46.9533 42.6178 47.3405C42.7665 47.7277 42.8451 48.1677 42.8451 48.6428C42.8451 48.7572 42.8189 48.8364 42.7577 48.8892C42.6965 48.942 42.6266 48.9684 42.5479 48.9684L39.1035 48.986C39.0336 48.986 38.9899 49.0036 38.9899 49.0476C38.9811 49.0916 38.9986 49.1444 39.0336 49.206C39.1385 49.3908 39.2783 49.5316 39.4794 49.6195C39.6717 49.7075 39.8816 49.7603 40.1001 49.7603C40.275 49.7603 40.4585 49.7251 40.6421 49.6459C40.8257 49.5668 40.9831 49.4348 41.1142 49.25C41.1666 49.1796 41.2453 49.1356 41.3327 49.118C41.4202 49.1004 41.5076 49.1268 41.5775 49.1972L42.5129 49.9275C42.5916 49.9803 42.6353 50.0507 42.6441 50.1387C42.6528 50.2267 42.6266 50.3059 42.5829 50.3763C42.3119 50.7635 41.9534 51.0626 41.5163 51.2738C41.0792 51.485 40.6072 51.5906 40.1001 51.5906C39.6805 51.5906 39.2783 51.5114 38.9112 51.3618C38.5353 51.2122 38.2118 51.001 37.9321 50.7283C37.6523 50.4555 37.4338 50.1299 37.2677 49.7515C37.1016 49.3908 37.0141 48.9684 37.0141 48.5108ZM30.6586 45.8886C30.6586 45.783 30.6849 45.7038 30.7461 45.651C30.8072 45.5894 30.8772 45.563 30.9733 45.563H36.07C36.1487 45.563 36.2274 45.5894 36.2885 45.651C36.3497 45.7126 36.3847 45.7918 36.3847 45.8886V47.0765C36.3847 47.1645 36.3497 47.2437 36.2885 47.3141C36.2274 47.3757 36.1487 47.4109 36.07 47.4109H34.6975C34.6275 47.4109 34.5664 47.4373 34.5139 47.4901C34.4614 47.5429 34.4352 47.6133 34.4352 47.6837V51.177C34.4352 51.2562 34.409 51.3354 34.3478 51.397C34.2866 51.4586 34.2167 51.4938 34.1205 51.4938H32.9141C32.8354 51.4938 32.7567 51.4586 32.6955 51.397C32.6343 51.3354 32.5994 51.2562 32.5994 51.177V47.7277C32.5994 47.6573 32.5732 47.5869 32.5294 47.5165C32.4857 47.4461 32.4245 47.4109 32.3546 47.4109H30.9733C30.8859 47.4109 30.8072 47.3757 30.7461 47.3141C30.6849 47.2525 30.6586 47.1733 30.6586 47.0765V45.8886ZM29.4522 45.5542C29.5396 45.5542 29.6183 45.5806 29.6883 45.6422C29.7495 45.7038 29.7844 45.783 29.7844 45.8798V51.1682C29.7844 51.2474 29.7495 51.3266 29.6883 51.3882C29.6271 51.4498 29.5484 51.485 29.4522 51.485H28.2633C28.1759 51.485 28.0972 51.4498 28.0273 51.3882C27.9661 51.3266 27.9311 51.2474 27.9311 51.1682V47.6749C27.9311 47.6045 27.9049 47.5341 27.8524 47.4813C27.8 47.4285 27.7475 47.4021 27.6776 47.4021H25.868C25.798 47.4021 25.7368 47.4373 25.6931 47.5077C25.6494 47.5781 25.6232 47.6485 25.6232 47.7189V51.1682C25.6232 51.2474 25.5969 51.3266 25.5358 51.3882C25.4746 51.4498 25.4046 51.485 25.3085 51.485H24.102C24.0146 51.485 23.9359 51.4498 23.8748 51.3882C23.8136 51.3266 23.7873 51.2474 23.7873 51.1682V45.8798C23.7873 45.7742 23.8136 45.695 23.8748 45.6422C23.9359 45.5806 24.0059 45.5542 24.102 45.5542H29.4522ZM18.1924 48.5108C18.1924 48.7044 18.2273 48.8804 18.306 49.0388C18.376 49.1972 18.4721 49.3292 18.5858 49.4348C18.6994 49.5491 18.8306 49.6283 18.9792 49.6811C19.1278 49.7339 19.2851 49.7603 19.4512 49.7603C19.7834 49.7603 20.0719 49.6459 20.3167 49.426C20.5615 49.206 20.6839 48.898 20.6839 48.502C20.6839 48.1149 20.5615 47.8157 20.3167 47.5957C20.0719 47.3757 19.7834 47.2701 19.4512 47.2701C19.2851 47.2701 19.1278 47.2965 18.9792 47.3493C18.8306 47.4021 18.6994 47.4813 18.5858 47.5869C18.4721 47.6925 18.376 47.8245 18.306 47.9741C18.2273 48.1501 18.1924 48.3172 18.1924 48.5108ZM22.205 45.5542C22.2924 45.5542 22.3711 45.5806 22.4323 45.6422C22.4935 45.7038 22.5197 45.783 22.5197 45.8798V51.1682C22.5197 51.2474 22.4935 51.3266 22.4323 51.3882C22.3711 51.4498 22.3012 51.485 22.205 51.485H21.0161C20.9287 51.485 20.8587 51.4674 20.8063 51.4322C20.7713 51.4146 20.7189 51.4058 20.6664 51.4146C20.6052 51.4234 20.5265 51.441 20.4129 51.4674C20.2555 51.5114 20.0982 51.5466 19.9408 51.573C19.7834 51.5994 19.6173 51.6082 19.4512 51.6082C19.0316 51.6082 18.6295 51.529 18.2623 51.3794C17.8864 51.2298 17.5629 51.0186 17.2832 50.7459C17.0035 50.4731 16.7849 50.1475 16.6188 49.7691C16.4527 49.3908 16.374 48.9684 16.374 48.502C16.374 48.0533 16.4527 47.6309 16.6188 47.2525C16.7849 46.8741 17.0035 46.5398 17.2832 46.2758C17.5629 46.003 17.8864 45.7918 18.2623 45.6422C18.6382 45.4926 19.0316 45.4135 19.4512 45.4135C19.7747 45.4135 20.0894 45.4662 20.4129 45.563C20.5265 45.5894 20.6052 45.607 20.6664 45.6158C20.7276 45.6246 20.7713 45.6246 20.8063 45.5982C20.85 45.563 20.9199 45.5454 21.0161 45.5454H22.205V45.5542Z" fill="#3FFE13"/>
<path d="M106.392 48.5107C106.392 48.7043 106.427 48.8803 106.505 49.0387C106.575 49.1971 106.672 49.3291 106.785 49.4347C106.899 49.5491 107.03 49.6282 107.179 49.681C107.327 49.7338 107.485 49.7602 107.651 49.7602C107.983 49.7602 108.271 49.6458 108.516 49.4259C108.761 49.2059 108.883 48.8979 108.883 48.5019C108.883 48.1148 108.761 47.8156 108.516 47.5956C108.271 47.3756 107.983 47.27 107.651 47.27C107.485 47.27 107.327 47.2964 107.179 47.3492C107.03 47.402 106.899 47.4812 106.785 47.5868C106.672 47.6924 106.575 47.8244 106.505 47.974C106.427 48.15 106.392 48.3171 106.392 48.5107ZM110.413 45.5542C110.501 45.5542 110.579 45.5806 110.64 45.6422C110.702 45.7038 110.728 45.7829 110.728 45.8797V51.1681C110.728 51.2473 110.702 51.3265 110.64 51.3881C110.579 51.4497 110.509 51.4849 110.413 51.4849H109.224C109.137 51.4849 109.067 51.4673 109.014 51.4321C108.979 51.4145 108.927 51.4057 108.875 51.4145C108.813 51.4233 108.735 51.4409 108.621 51.4673C108.464 51.5113 108.306 51.5465 108.149 51.5729C107.992 51.5993 107.826 51.6081 107.659 51.6081C107.24 51.6081 106.838 51.5289 106.47 51.3793C106.095 51.2297 105.771 51.0185 105.491 50.7458C105.212 50.473 104.993 50.1474 104.827 49.769C104.661 49.3907 104.582 48.9683 104.582 48.5019C104.582 48.0532 104.661 47.6308 104.827 47.2524C104.993 46.8741 105.212 46.5397 105.491 46.2757C105.771 46.0029 106.095 45.7917 106.47 45.6422C106.846 45.4926 107.24 45.4134 107.659 45.4134C107.983 45.4134 108.298 45.4662 108.621 45.563C108.735 45.5894 108.813 45.607 108.875 45.6158C108.936 45.6246 108.979 45.6246 109.014 45.5982C109.058 45.563 109.128 45.5454 109.224 45.5454H110.413V45.5542ZM101.846 49.1443C101.846 48.8891 101.828 48.6427 101.785 48.4227C101.741 48.194 101.671 48.0004 101.575 47.8332C101.479 47.666 101.348 47.5252 101.19 47.4372C101.033 47.3404 100.832 47.2964 100.605 47.2964C100.395 47.2964 100.211 47.3404 100.054 47.4284C99.8964 47.5164 99.774 47.6396 99.6691 47.798C99.5642 47.9564 99.4943 48.1324 99.4418 48.3435C99.3894 48.5547 99.3632 48.7747 99.3544 49.0123V51.1945C99.3544 51.2737 99.3282 51.3529 99.267 51.4145C99.2058 51.4761 99.1359 51.5113 99.0397 51.5113H97.8333C97.7459 51.5113 97.6672 51.4761 97.606 51.4145C97.5448 51.3529 97.5186 51.2737 97.5186 51.1945V45.9061C97.5186 45.8005 97.5448 45.7213 97.606 45.6686C97.6672 45.607 97.7371 45.5806 97.8333 45.5806H99.0397C99.1271 45.5806 99.197 45.607 99.232 45.6598C99.267 45.695 99.3107 45.7037 99.3457 45.6949C99.3894 45.6774 99.4331 45.6686 99.4855 45.651C99.6691 45.5894 99.8527 45.5366 100.036 45.5014C100.22 45.4662 100.403 45.4486 100.596 45.4486C100.989 45.4486 101.365 45.519 101.732 45.6598C102.099 45.8005 102.423 45.9941 102.711 46.2581C103 46.5221 103.227 46.8477 103.402 47.2348C103.577 47.622 103.664 48.062 103.664 48.5459V51.2121C103.664 51.2913 103.638 51.3705 103.577 51.4321C103.516 51.4937 103.446 51.5289 103.35 51.5289H102.143C102.056 51.5289 101.977 51.4937 101.916 51.4321C101.855 51.3705 101.828 51.2913 101.828 51.2121V49.1443H101.846ZM91.9324 48.5107C91.9324 48.7043 91.9673 48.8803 92.046 49.0387C92.1159 49.1971 92.2121 49.3291 92.3258 49.4347C92.4394 49.5491 92.5705 49.6282 92.7191 49.681C92.8678 49.7338 93.0251 49.7602 93.1912 49.7602C93.5234 49.7602 93.8119 49.6458 94.0567 49.4259C94.3015 49.2059 94.4239 48.8979 94.4239 48.5019C94.4239 48.1148 94.3015 47.8156 94.0567 47.5956C93.8119 47.3756 93.5234 47.27 93.1912 47.27C93.0251 47.27 92.8678 47.2964 92.7191 47.3492C92.5705 47.402 92.4394 47.4812 92.3258 47.5868C92.2121 47.6924 92.1159 47.8244 92.046 47.974C91.9673 48.15 91.9324 48.3171 91.9324 48.5107ZM95.945 45.5542C96.0324 45.5542 96.1111 45.5806 96.1723 45.6422C96.2335 45.7038 96.2597 45.7829 96.2597 45.8797V51.1681C96.2597 51.2473 96.2335 51.3265 96.1723 51.3881C96.1111 51.4497 96.0411 51.4849 95.945 51.4849H94.7561C94.6686 51.4849 94.5987 51.4673 94.5462 51.4321C94.5113 51.4145 94.4588 51.4057 94.4064 51.4145C94.3452 51.4233 94.2665 51.4409 94.1529 51.4673C93.9955 51.5113 93.8381 51.5465 93.6808 51.5729C93.5234 51.5993 93.3573 51.6081 93.1912 51.6081C92.7716 51.6081 92.3695 51.5289 92.0023 51.3793C91.6264 51.2297 91.3029 51.0185 91.0232 50.7458C90.7434 50.473 90.5249 50.1474 90.3588 49.769C90.1927 49.3907 90.114 48.9683 90.114 48.5019C90.114 48.0532 90.1927 47.6308 90.3588 47.2524C90.5249 46.8741 90.7434 46.5397 91.0232 46.2757C91.3029 46.0029 91.6264 45.7917 92.0023 45.6422C92.3782 45.4926 92.7716 45.4134 93.1912 45.4134C93.5147 45.4134 93.8294 45.4662 94.1529 45.563C94.2665 45.5894 94.3452 45.607 94.4064 45.6158C94.4676 45.6246 94.5113 45.6246 94.5462 45.5982C94.59 45.563 94.6599 45.5454 94.7561 45.5454H95.945V45.5542ZM87.3777 49.1443C87.3777 48.8891 87.3602 48.6427 87.3165 48.4227C87.2728 48.194 87.2029 48.0004 87.1067 47.8332C87.0106 47.666 86.8794 47.5252 86.7221 47.4372C86.5647 47.3404 86.3636 47.2964 86.1363 47.2964C85.9265 47.2964 85.743 47.3404 85.5856 47.4284C85.4282 47.5164 85.3058 47.6396 85.2009 47.798C85.096 47.9564 85.0261 48.1324 84.9736 48.3435C84.9212 48.5547 84.895 48.7747 84.8862 49.0123V51.1945C84.8862 51.2737 84.86 51.3529 84.7988 51.4145C84.7376 51.4761 84.6677 51.5113 84.5715 51.5113H83.3651C83.2777 51.5113 83.199 51.4761 83.1378 51.4145C83.0766 51.3529 83.0504 51.2737 83.0504 51.1945V42.8176C83.0504 42.712 83.0766 42.6328 83.1378 42.58C83.199 42.5184 83.2689 42.492 83.3651 42.492H84.5715C84.6589 42.492 84.7376 42.5184 84.7988 42.58C84.86 42.6416 84.8862 42.7208 84.8862 42.8176V45.343C84.8862 45.431 84.895 45.5014 84.9124 45.5366C84.9299 45.5718 84.9649 45.5982 85.0174 45.5982C85.0698 45.607 85.131 45.5982 85.2184 45.5806C85.2971 45.563 85.402 45.5366 85.5331 45.5102C85.743 45.4662 85.944 45.4398 86.1363 45.4398C86.5297 45.4398 86.9056 45.5102 87.2728 45.651C87.64 45.7917 87.9634 45.9853 88.2519 46.2493C88.5404 46.5133 88.7677 46.8389 88.9426 47.226C89.1174 47.6132 89.2048 48.0532 89.2048 48.5371V51.2033C89.2048 51.2825 89.1786 51.3617 89.1174 51.4233C89.0562 51.4849 88.9863 51.5201 88.8901 51.5201H87.6837C87.5963 51.5201 87.5176 51.4849 87.4564 51.4233C87.3952 51.3617 87.369 51.2825 87.369 51.2033V49.1443H87.3777ZM81.3632 45.5542C81.4506 45.5542 81.5293 45.5806 81.5904 45.6422C81.6516 45.7038 81.6779 45.7829 81.6779 45.8797V51.1681C81.6779 51.2473 81.6516 51.3265 81.5904 51.3881C81.5293 51.4497 81.4593 51.4849 81.3632 51.4849H80.1567C80.0693 51.4849 79.9906 51.4497 79.9294 51.3881C79.8683 51.3265 79.842 51.2473 79.842 51.1681V45.8797C79.842 45.7741 79.8683 45.695 79.9294 45.6422C79.9906 45.5806 80.0606 45.5542 80.1567 45.5542H81.3632ZM78.6356 47.4108C78.3559 47.4108 78.0936 47.446 77.8576 47.5252C77.6215 47.5956 77.4117 47.71 77.2369 47.8596C77.062 48.0092 76.9134 48.2028 76.8085 48.4491C76.7036 48.6867 76.6424 48.9771 76.6337 49.3027V51.1769C76.6337 51.2561 76.6074 51.3353 76.5463 51.3969C76.4851 51.4585 76.4151 51.4937 76.319 51.4937H74.9902C74.9027 51.4937 74.8241 51.4585 74.7629 51.3969C74.7017 51.3353 74.6754 51.2561 74.6754 51.1769V45.8885C74.6754 45.7829 74.7017 45.7037 74.7629 45.651C74.8241 45.5894 74.894 45.563 74.9902 45.563H76.319C76.5025 45.563 76.6074 45.6598 76.6337 45.8533C76.6424 45.9061 76.6599 45.9325 76.6949 45.9237C76.7298 45.9149 76.7823 45.8973 76.8522 45.8797C77.3855 45.6686 77.98 45.563 78.6356 45.563C78.7143 45.563 78.793 45.5894 78.8629 45.651C78.9328 45.7125 78.9678 45.7829 78.9678 45.8797V47.094C78.9678 47.182 78.9328 47.2612 78.8629 47.3228C78.793 47.3756 78.7143 47.4108 78.6356 47.4108ZM70.4617 43.9615C70.4617 43.7503 70.5404 43.5655 70.689 43.4071C70.8377 43.2487 71.03 43.1695 71.2573 43.1695C71.4671 43.1695 71.6507 43.2487 71.808 43.4071C71.9654 43.5655 72.0441 43.7503 72.0441 43.9615C72.0441 44.1815 71.9654 44.3751 71.808 44.5334C71.6507 44.6918 71.4671 44.771 71.2573 44.771C71.03 44.771 70.8377 44.6918 70.689 44.5334C70.5317 44.3663 70.4617 44.1815 70.4617 43.9615ZM68.6084 43.9615C68.6084 43.7503 68.6871 43.5655 68.8357 43.4071C68.9843 43.2487 69.1767 43.1695 69.404 43.1695C69.6225 43.1695 69.8148 43.2487 69.9634 43.4071C70.1208 43.5655 70.1995 43.7503 70.1995 43.9615C70.1995 44.1815 70.1208 44.3751 69.9634 44.5334C69.8061 44.6918 69.6225 44.771 69.404 44.771C69.1767 44.771 68.9843 44.6918 68.8357 44.5334C68.6871 44.3663 68.6084 44.1815 68.6084 43.9615ZM69.0718 48.5107C69.0718 48.7043 69.1067 48.8803 69.1854 49.0387C69.2553 49.1971 69.3515 49.3291 69.4651 49.4347C69.5788 49.5491 69.7099 49.6282 69.8585 49.681C70.0072 49.7338 70.1645 49.7602 70.3306 49.7602C70.6628 49.7602 70.9513 49.6458 71.1961 49.4259C71.4409 49.2059 71.5633 48.8979 71.5633 48.5019C71.5633 48.1148 71.4409 47.8156 71.1961 47.5956C70.9513 47.3756 70.6628 47.27 70.3306 47.27C70.1645 47.27 70.0072 47.2964 69.8585 47.3492C69.7099 47.402 69.5788 47.4812 69.4651 47.5868C69.3515 47.6924 69.2553 47.8244 69.1854 47.974C69.1155 48.15 69.0718 48.3171 69.0718 48.5107ZM73.0931 45.5542C73.1805 45.5542 73.2592 45.5806 73.3204 45.6422C73.3816 45.7038 73.4078 45.7829 73.4078 45.8797V51.1681C73.4078 51.2473 73.3816 51.3265 73.3204 51.3881C73.2592 51.4497 73.1893 51.4849 73.0931 51.4849H71.9042C71.8168 51.4849 71.7468 51.4673 71.6944 51.4321C71.6594 51.4145 71.607 51.4057 71.5545 51.4145C71.4933 51.4233 71.4146 51.4409 71.301 51.4673C71.1436 51.5113 70.9863 51.5465 70.8289 51.5729C70.6716 51.5993 70.5055 51.6081 70.3394 51.6081C69.9197 51.6081 69.5176 51.5289 69.1504 51.3793C68.7745 51.2297 68.4511 51.0185 68.1713 50.7458C67.8916 50.473 67.673 50.1474 67.5069 49.769C67.3408 49.3907 67.2621 48.9683 67.2621 48.5019C67.2621 48.0532 67.3408 47.6308 67.5069 47.2524C67.673 46.8741 67.8916 46.5397 68.1713 46.2757C68.4511 46.0029 68.7745 45.7917 69.1504 45.6422C69.5263 45.4926 69.9197 45.4134 70.3394 45.4134C70.6628 45.4134 70.9775 45.4662 71.301 45.563C71.4146 45.5894 71.4933 45.607 71.5545 45.6158C71.6157 45.6246 71.6594 45.6246 71.6944 45.5982C71.7381 45.563 71.808 45.5454 71.9042 45.5454H73.0931V45.5542ZM63.1534 47.2876C63.4768 47.2876 63.7566 47.3932 64.0013 47.5956C64.2461 47.8068 64.3772 48.0972 64.3947 48.4755V48.5899C64.3772 48.9595 64.2461 49.2499 64.0013 49.4611C63.7566 49.6722 63.4681 49.7778 63.1534 49.7778C62.8124 49.7778 62.5239 49.6634 62.2791 49.4435C62.0344 49.2235 61.912 48.9155 61.912 48.5195C61.912 48.1324 62.0344 47.8332 62.2791 47.6132C62.5239 47.3932 62.8124 47.2876 63.1534 47.2876ZM64.7182 42.4656C64.6308 42.4656 64.5521 42.492 64.4909 42.5536C64.4297 42.6152 64.4035 42.6944 64.4035 42.7912V45.4398C64.4035 45.519 64.3685 45.563 64.2898 45.5542C64.2199 45.5454 64.115 45.5366 63.9839 45.519C63.7128 45.4486 63.4331 45.4046 63.1446 45.4046C62.725 45.4046 62.3228 45.4838 61.9557 45.6334C61.5798 45.7829 61.2563 45.9941 60.9766 46.2669C60.6968 46.5397 60.4783 46.8653 60.3122 47.2436C60.1461 47.622 60.0674 48.0444 60.0674 48.4931C60.0674 48.9507 60.1461 49.3731 60.3122 49.7602C60.4783 50.1386 60.6968 50.473 60.9766 50.737C61.2563 51.0097 61.5798 51.2209 61.9557 51.3705C62.3316 51.5201 62.725 51.5993 63.1446 51.5993C63.5205 51.5993 63.8527 51.5553 64.1325 51.4585C64.2549 51.4233 64.3423 51.3969 64.3947 51.3881C64.4472 51.3793 64.4996 51.3881 64.5433 51.4145C64.5871 51.4497 64.6395 51.4673 64.7094 51.4673H65.9159C66.0033 51.4673 66.082 51.4321 66.1431 51.3705C66.2043 51.3089 66.2306 51.2297 66.2306 51.1505V42.7736C66.2306 42.668 66.2043 42.5888 66.1431 42.536C66.082 42.4744 66.012 42.448 65.9159 42.448H64.7182V42.4656Z" fill="#3FFE13"/>
<path d="M72.1832 54.776C72.1832 54.732 72.1919 54.6968 72.2182 54.6616C72.2444 54.6352 72.2793 54.6176 72.3231 54.6176H74.36C74.3949 54.6176 74.4299 54.6352 74.4649 54.6616C74.4911 54.688 74.5086 54.7232 74.5086 54.776V55.3216C74.5086 55.3656 74.4911 55.4008 74.4649 55.4272C74.4386 55.4536 74.4037 55.4712 74.36 55.4712H73.1448C73.1098 55.4712 73.0749 55.4888 73.0574 55.5152C73.0312 55.5416 73.0224 55.5768 73.0224 55.6208V55.8935C73.0224 55.9287 73.0312 55.9639 73.0487 55.9903C73.0661 56.0167 73.0924 56.0343 73.1273 56.0343H73.4071C73.6081 56.0343 73.7917 56.0695 73.9491 56.1399C74.1065 56.2103 74.2376 56.3071 74.3512 56.4391C74.4561 56.5711 74.5436 56.7207 74.596 56.9055C74.6485 57.0814 74.6834 57.2838 74.6834 57.5038C74.6834 57.7502 74.6397 57.9614 74.5523 58.1286C74.4649 58.2958 74.3512 58.4277 74.2201 58.5333C74.089 58.6389 73.9404 58.7181 73.783 58.7621C73.6256 58.8061 73.477 58.8325 73.3372 58.8325C73.1885 58.8325 73.0312 58.8061 72.8738 58.7621C72.7165 58.7093 72.5678 58.6389 72.4454 58.5421C72.3143 58.4453 72.2094 58.3222 72.1307 58.1726C72.0433 58.023 72.0083 57.8382 72.0083 57.627C72.0083 57.5918 72.0258 57.5566 72.0521 57.5214C72.0783 57.495 72.1133 57.4774 72.157 57.4774H72.699C72.7427 57.4774 72.7777 57.495 72.8126 57.5214C72.8388 57.5478 72.8563 57.583 72.8563 57.627C72.8563 57.759 72.9175 57.8558 73.0137 57.9174C73.1186 57.979 73.2322 58.0054 73.3546 57.9966C73.477 57.9878 73.5907 57.9438 73.6956 57.8646C73.8005 57.7854 73.8529 57.671 73.8529 57.5214C73.8529 57.4686 73.8442 57.407 73.8354 57.3278C73.8267 57.2574 73.7917 57.187 73.7393 57.1254C73.6868 57.0638 73.6169 57.0111 73.512 56.9671C73.4158 56.9231 73.2759 56.8967 73.1098 56.8967H72.3318C72.2881 56.8967 72.2531 56.8791 72.2269 56.8527C72.2007 56.8263 72.1919 56.7911 72.1919 56.7471V54.776H72.1832ZM66.055 55.4096C65.9064 55.4096 65.784 55.4536 65.6965 55.5328C65.6004 55.612 65.5567 55.7351 65.5567 55.8935C65.5567 56.0431 65.6004 56.1663 65.6965 56.2455C65.7927 56.3247 65.9151 56.3687 66.055 56.3687C66.1948 56.3687 66.3085 56.3247 66.4047 56.2455C66.5008 56.1663 66.5533 56.0431 66.5533 55.8935C66.5533 55.7351 66.5008 55.6208 66.4047 55.5328C66.3172 55.4536 66.1948 55.4096 66.055 55.4096ZM66.055 57.2222C65.8976 57.2222 65.7402 57.1958 65.5829 57.1518C65.4255 57.1078 65.2857 57.0287 65.1545 56.9231C65.0234 56.8175 64.9185 56.6855 64.8398 56.5183C64.7611 56.3511 64.7174 56.1399 64.7174 55.8935C64.7174 55.6472 64.7611 55.4448 64.8486 55.2688C64.936 55.1016 65.0409 54.9608 65.172 54.8552C65.3032 54.7496 65.4518 54.6792 65.6091 54.6264C65.7665 54.5824 65.9151 54.556 66.055 54.556C66.3522 54.556 66.5882 54.6176 66.7806 54.7408C66.9729 54.864 67.1215 55.0312 67.2264 55.2336C67.3313 55.436 67.41 55.6647 67.4537 55.9199C67.4974 56.1751 67.5149 56.4303 67.5149 56.6855C67.5149 57.0111 67.4799 57.3102 67.4187 57.5742C67.3575 57.8382 67.2614 58.0582 67.139 58.243C67.0166 58.4277 66.868 58.5685 66.6844 58.6653C66.5008 58.7621 66.291 58.8149 66.055 58.8149C65.9064 58.8149 65.7665 58.7973 65.6179 58.7621C65.478 58.7269 65.3469 58.6653 65.2245 58.5861C65.1021 58.5069 64.9972 58.4013 64.9098 58.2782C64.8223 58.155 64.7524 58.0054 64.7174 57.8294C64.7087 57.7942 64.7087 57.7502 64.7262 57.715C64.7437 57.6798 64.7699 57.6534 64.8136 57.6358L65.3381 57.4598C65.3818 57.451 65.4168 57.4598 65.4605 57.4774C65.5042 57.495 65.5217 57.5214 65.5304 57.5566C65.5654 57.715 65.6266 57.8294 65.714 57.8822C65.8014 57.9438 65.9151 57.9702 66.0462 57.9702C66.2036 57.9702 66.3347 57.9174 66.4484 57.803C66.562 57.6886 66.6232 57.5126 66.6319 57.275C66.6319 57.2134 66.6232 57.1694 66.597 57.143C66.5795 57.1166 66.5445 57.1078 66.5008 57.1254C66.4833 57.1342 66.4484 57.143 66.4134 57.1606C66.3784 57.1782 66.3347 57.187 66.291 57.1958C66.2473 57.2046 66.2036 57.2134 66.1599 57.2222C66.1336 57.2222 66.0987 57.2222 66.055 57.2222ZM58.7029 55.4096C58.5542 55.4096 58.4319 55.4536 58.3444 55.5328C58.2483 55.612 58.2046 55.7351 58.2046 55.8935C58.2046 56.0431 58.2483 56.1663 58.3444 56.2455C58.4406 56.3247 58.563 56.3687 58.7029 56.3687C58.8427 56.3687 58.9564 56.3247 59.0525 56.2455C59.1487 56.1663 59.2012 56.0431 59.2012 55.8935C59.2012 55.7351 59.1487 55.6208 59.0525 55.5328C58.9651 55.4536 58.8427 55.4096 58.7029 55.4096ZM58.7029 57.2222C58.5455 57.2222 58.3881 57.1958 58.2308 57.1518C58.0734 57.1078 57.9336 57.0287 57.8024 56.9231C57.6713 56.8175 57.5664 56.6855 57.4877 56.5183C57.409 56.3511 57.3653 56.1399 57.3653 55.8935C57.3653 55.6472 57.409 55.4448 57.4964 55.2688C57.5839 55.1016 57.6888 54.9608 57.8199 54.8552C57.951 54.7496 58.0997 54.6792 58.257 54.6264C58.4144 54.5824 58.563 54.556 58.7029 54.556C59.0001 54.556 59.2361 54.6176 59.4285 54.7408C59.6208 54.864 59.7694 55.0312 59.8743 55.2336C59.9792 55.436 60.0579 55.6647 60.1016 55.9199C60.1453 56.1751 60.1628 56.4303 60.1628 56.6855C60.1628 57.0111 60.1278 57.3102 60.0666 57.5742C60.0054 57.8382 59.9093 58.0582 59.7869 58.243C59.6645 58.4277 59.5159 58.5685 59.3323 58.6653C59.1487 58.7621 58.9389 58.8149 58.7029 58.8149C58.5542 58.8149 58.4144 58.7973 58.2658 58.7621C58.1259 58.7269 57.9947 58.6653 57.8724 58.5861C57.75 58.5069 57.6451 58.4013 57.5576 58.2782C57.4702 58.155 57.4003 58.0054 57.3653 57.8294C57.3566 57.7942 57.3566 57.7502 57.3741 57.715C57.3915 57.6798 57.4178 57.6534 57.4615 57.6358L57.986 57.4598C58.0297 57.451 58.0647 57.4598 58.1084 57.4774C58.1521 57.495 58.1696 57.5214 58.1783 57.5566C58.2133 57.715 58.2745 57.8294 58.3619 57.8822C58.4493 57.9438 58.563 57.9702 58.6941 57.9702C58.8515 57.9702 58.9826 57.9174 59.0963 57.803C59.2099 57.6886 59.2711 57.5126 59.2798 57.275C59.2798 57.2134 59.2711 57.1694 59.2449 57.143C59.2274 57.1166 59.1924 57.1078 59.1487 57.1254C59.1312 57.1342 59.0962 57.143 59.0613 57.1606C59.0263 57.1782 58.9826 57.187 58.9389 57.1958C58.8952 57.2046 58.8515 57.2134 58.8078 57.2222C58.7641 57.231 58.7466 57.2222 58.7029 57.2222ZM16.3911 57.7766C16.0326 57.7766 15.7441 57.6358 15.7441 57.4686C15.7441 57.2926 16.0326 57.1606 16.3911 57.1606H46.1142C46.4726 57.1606 46.7611 57.3014 46.7611 57.4686C46.7611 57.6446 46.4726 57.7766 46.1142 57.7766H16.3911ZM79.7364 57.7766C79.3779 57.7766 79.0895 57.6358 79.0895 57.4686C79.0895 57.2926 79.3779 57.1606 79.7364 57.1606H109.46C109.818 57.1606 110.106 57.3014 110.106 57.4686C110.106 57.6446 109.818 57.7766 109.46 57.7766H79.7364ZM51.8403 54.7056C51.8753 54.6528 51.919 54.6264 51.9627 54.6264H52.5134C52.5572 54.6264 52.5921 54.644 52.6184 54.6704C52.6446 54.6968 52.6621 54.732 52.6621 54.7848V58.6301C52.6621 58.6653 52.6446 58.7005 52.6184 58.7357C52.5921 58.7709 52.5572 58.7797 52.5134 58.7797H51.9627C51.9277 58.7797 51.8928 58.7621 51.8578 58.7357C51.8316 58.7093 51.8141 58.6741 51.8141 58.6301V55.9199C51.8141 55.8935 51.7966 55.8671 51.7529 55.8583C51.7092 55.8495 51.6655 55.8671 51.613 55.9287C51.5518 56.0167 51.4819 56.0255 51.4207 55.9727L51.2196 55.8055C51.1497 55.7439 51.1409 55.6735 51.1846 55.5944L51.8403 54.7056Z" fill="white"/>
</svg>
