<svg width="54" height="54" viewBox="0 0 54 54" fill="none" xmlns="http://www.w3.org/2000/svg">
<path d="M53.6897 0.308918C53.4919 0.111164 53.2235 0 52.9437 0L26.9991 0.00137109C26.4167 0.00137109 25.9445 0.47366 25.9445 1.05606V4.07215L15.9472 6.75095C15.3845 6.90177 15.0506 7.48005 15.2014 8.04262L20.3828 27.3795L15.9005 31.8618C15.33 31.0288 14.3721 30.481 13.2886 30.481H3.16396C1.41929 30.481 0 31.9004 0 33.645V50.8359C0 52.5806 1.41929 54 3.16396 54H13.2887C14.7709 54 16.0177 52.9753 16.3595 51.5974L17.6135 52.691C18.5816 53.5352 19.8219 54.0001 21.1064 54.0001H52.9439C53.5263 54.0001 53.9986 53.5278 53.9986 52.9454V1.05469C53.9984 0.774984 53.8875 0.506672 53.6897 0.308918ZM14.3432 50.836C14.3432 51.4175 13.8701 51.8907 13.2885 51.8907H3.16385C2.5823 51.8907 2.10916 51.4176 2.10916 50.836V33.6451C2.10916 33.0635 2.5823 32.5904 3.16385 32.5904H7.17156V44.7398C7.17156 45.3222 7.64385 45.7945 8.22625 45.7945C8.80864 45.7945 9.28093 45.3222 9.28093 44.7398V32.5904H13.2886C13.8702 32.5904 14.3433 33.0635 14.3433 33.6451V50.836H14.3432ZM17.5118 8.51544L25.9445 6.25588V10.164L25.2376 10.3534C24.9673 10.4259 24.7371 10.6026 24.5972 10.8448C24.4574 11.0871 24.4194 11.3749 24.4918 11.6451C24.8972 13.1576 23.9964 14.7178 22.4838 15.1232C22.2133 15.1957 21.9826 15.3727 21.8429 15.6155C21.7031 15.8582 21.6655 16.1465 21.7386 16.4169L25.8497 31.6401H23.7329L22.642 27.3724C22.6073 27.2366 22.5466 27.1114 22.4653 27.0025L17.5118 8.51544ZM25.9445 15.0007V23.9003L24.0208 16.7774C24.8244 16.3625 25.482 15.7417 25.9445 15.0007ZM41.0965 51.8906H21.1062C20.3315 51.8906 19.5834 51.6103 18.9996 51.1012L16.4526 48.8799V34.2928L21.0572 29.6883L21.8923 32.9557C22.0116 33.4226 22.4321 33.7492 22.914 33.7492L43.6496 33.7504C44.4638 33.7504 45.1262 34.4128 45.1262 35.227C45.1262 36.0412 44.4638 36.7035 43.6496 36.7035H33.0247C32.4423 36.7035 31.97 37.1758 31.97 37.7582C31.97 38.3406 32.4423 38.8129 33.0247 38.8129H46.9508C47.765 38.8129 48.4273 39.4753 48.4273 40.2895C48.4273 41.1037 47.765 41.766 46.9508 41.766H33.0247C32.4423 41.766 31.97 42.2383 31.97 42.8207C31.97 43.4031 32.4423 43.8754 33.0247 43.8754H44.6941C45.5083 43.8754 46.1706 44.5378 46.1706 45.352C46.1706 46.1662 45.5083 46.8285 44.6941 46.8285H33.0247C32.4423 46.8285 31.97 47.3008 31.97 47.8832C31.97 48.4656 32.4423 48.9379 33.0247 48.9379H41.0965C41.9108 48.9379 42.5731 49.6003 42.5731 50.4145C42.573 51.2283 41.9106 51.8906 41.0965 51.8906ZM51.8893 51.8906H51.8892H44.363C44.5675 51.44 44.6824 50.9404 44.6824 50.4141C44.6824 49.8878 44.5675 49.3882 44.363 48.9375H44.6941C46.6713 48.9375 48.2799 47.3289 48.2799 45.3517C48.2799 44.775 48.1423 44.23 47.8993 43.7467C49.4176 43.3297 50.5365 41.9381 50.5365 40.2893C50.5365 39.4894 50.2731 38.75 49.8287 38.153V24.7859C49.8287 24.2035 49.3564 23.7312 48.774 23.7312C48.1916 23.7312 47.7193 24.2035 47.7193 24.7859V36.7874C47.4715 36.7331 47.2145 36.7035 46.9506 36.7035H46.916C47.1205 36.2529 47.2353 35.7533 47.2353 35.227C47.2353 33.2497 45.6267 31.6412 43.6495 31.6412H41.9541C43.7543 30.8691 45.0187 29.0797 45.0187 27C45.0187 24.2168 42.7545 21.9525 39.9713 21.9525C37.1882 21.9525 34.9239 24.2168 34.9239 27C34.9239 29.0797 36.1883 30.8691 37.9885 31.6412H32.2232V11.5871C34.1073 11.1765 35.594 9.68994 36.0045 7.80574H43.938C44.3484 9.68994 45.8351 11.1765 47.7192 11.5871V14.8661C47.7192 15.4485 48.1915 15.9208 48.7739 15.9208C49.3563 15.9208 49.8286 15.4485 49.8286 14.8661V10.6455C49.8286 10.0631 49.3563 9.5908 48.7739 9.5908C47.208 9.5908 45.9343 8.31684 45.9343 6.75105C45.9343 6.16866 45.462 5.69637 44.8796 5.69637H35.063C34.4806 5.69637 34.0083 6.16866 34.0083 6.75105C34.0083 8.31695 32.7344 9.5908 31.1687 9.5908C30.5863 9.5908 30.114 10.0631 30.114 10.6455V31.641H28.054V2.11054L51.8893 2.10938V51.8906ZM39.9715 29.9381C38.3514 29.9381 37.0335 28.6201 37.0335 27.0001C37.0335 25.3801 38.3515 24.062 39.9715 24.062C41.5915 24.062 42.9095 25.38 42.9095 27C42.9095 28.62 41.5916 29.9381 39.9715 29.9381Z" fill="#29ED08"/>
</svg>
