<svg width="106" height="48" viewBox="0 0 106 48" fill="none" xmlns="http://www.w3.org/2000/svg">
<g clip-path="url(#clip0)">
<path d="M19.153 16.799L16.722 31.065H20.61L23.043 16.799H19.153Z" fill="#29ED08"/>
<path d="M13.462 16.815L9.654 26.544L9.248 25.075C8.497 23.305 6.365 20.763 3.862 19.161L7.344 31.058L11.458 31.051L17.581 16.812L13.462 16.815Z" fill="#29ED08"/>
<path d="M7.772 17.836C7.546 16.967 6.891 16.708 6.078 16.677H0.05L0 16.961C4.691 18.099 7.795 20.841 9.083 24.138L7.772 17.836Z" fill="#29ED08"/>
<path d="M30.923 19.534C32.195 19.514 33.117 19.792 33.833 20.08L34.184 20.245L34.71 17.153C33.94 16.864 32.733 16.554 31.227 16.554C27.385 16.554 24.677 18.489 24.656 21.262C24.631 23.311 26.585 24.455 28.061 25.138C29.576 25.838 30.084 26.283 30.077 26.908C30.065 27.863 28.869 28.301 27.752 28.301C26.195 28.301 25.368 28.086 24.091 27.554L23.59 27.326L23.043 30.519C23.953 30.918 25.632 31.261 27.375 31.279C31.462 31.279 34.118 29.367 34.146 26.404C34.163 24.783 33.126 23.546 30.879 22.531C29.519 21.869 28.687 21.429 28.695 20.761C28.695 20.168 29.401 19.534 30.923 19.534Z" fill="#29ED08"/>
<path d="M44.688 16.815H41.684C40.751 16.815 40.057 17.069 39.647 17.999L33.874 31.073H37.957C37.957 31.073 38.623 29.315 38.774 28.93C39.221 28.93 43.188 28.936 43.753 28.936C43.869 29.434 44.227 31.073 44.227 31.073H47.834L44.688 16.815ZM39.893 26.01C40.213 25.191 41.442 22.023 41.442 22.023C41.421 22.062 41.759 21.198 41.96 20.661L42.222 21.891C42.222 21.891 42.967 25.297 43.123 26.01H39.893Z" fill="#29ED08"/>
</g>
<path d="M90.8847 8.35352C87.7851 8.35352 84.9007 9.29192 82.5 10.8984C80.0989 9.29192 77.2149 8.35352 74.1153 8.35352C65.7808 8.35352 59 15.1336 59 23.4674C59 31.8012 65.7808 38.5812 74.1153 38.5812C77.2149 38.5812 80.0993 37.6428 82.5 36.0364C84.9011 37.6428 87.7851 38.5812 90.8847 38.5812C99.2192 38.5812 106 31.8012 106 23.4674C106 15.1336 99.2192 8.35352 90.8847 8.35352V8.35352ZM90.8847 35.8273C86.3838 35.8273 82.4372 33.409 80.2757 29.8042H81.8642C82.6248 29.8042 83.2412 29.1878 83.2412 28.4273C83.2412 27.6671 82.6248 27.0503 81.8642 27.0503H79.0537C78.8837 26.4902 78.7521 25.914 78.6625 25.3234H84.0677C84.8279 25.3234 85.4447 24.707 85.4447 23.9464C85.4447 23.1862 84.8279 22.5695 84.0677 22.5695H78.556C78.5983 21.9818 78.6825 21.4052 78.8048 20.8429H81.8642C82.6248 20.8429 83.2412 20.2262 83.2412 19.466C83.2412 18.7054 82.6248 18.089 81.8642 18.089H79.7565C81.7602 13.9607 85.9955 11.1074 90.8847 11.1074C97.7006 11.1074 103.246 16.6522 103.246 23.4674C103.246 30.2826 97.7006 35.8273 90.8847 35.8273Z" fill="#29ED08"/>
<defs>
<clipPath id="clip0">
<rect width="47.834" height="47.834" fill="white"/>
</clipPath>
</defs>
</svg>
