<svg width="16" height="16" viewBox="0 0 16 16" fill="none" xmlns="http://www.w3.org/2000/svg">
<path d="M3.33533 13.3333C3.33533 14.0687 3.93333 14.6667 4.66867 14.6667H11.3353C12.0707 14.6667 12.6687 14.0687 12.6687 13.3333V5.33333H14.002V4H11.3353V2.66667C11.3353 1.93133 10.7373 1.33333 10.002 1.33333H6.002C5.26667 1.33333 4.66867 1.93133 4.66867 2.66667V4H2.002V5.33333H3.33533V13.3333ZM6.002 2.66667H10.002V4H6.002V2.66667ZM5.33533 5.33333H11.3353L11.336 13.3333H4.66867V5.33333H5.33533Z" fill="#F94949"/>
<path d="M6.002 6.66667H7.33533V12H6.002V6.66667ZM8.66867 6.66667H10.002V12H8.66867V6.66667Z" fill="#F94949"/>
</svg>
