<svg width="20" height="20" viewBox="0 0 20 20" fill="none" xmlns="http://www.w3.org/2000/svg">
<path d="M9.99984 18L9.64628 18.3536C9.74005 18.4473 9.86723 18.5 9.99984 18.5C10.1324 18.5 10.2596 18.4473 10.3534 18.3536L9.99984 18ZM2.04721 10.0474L1.69366 10.4009L1.69366 10.4009L2.04721 10.0474ZM8.71388 3.38071L8.36033 3.73427V3.73427L8.71388 3.38071ZM9.99984 4.66667L9.64628 5.02022C9.84155 5.21548 10.1581 5.21548 10.3534 5.02022L9.99984 4.66667ZM11.2858 3.38071L10.9322 3.02716V3.02716L11.2858 3.38071ZM10.3534 17.6464L2.40077 9.69382L1.69366 10.4009L9.64628 18.3536L10.3534 17.6464ZM17.5989 9.69383L9.64628 17.6464L10.3534 18.3536L18.306 10.4009L17.5989 9.69383ZM8.36033 3.73427L9.64628 5.02022L10.3534 4.31311L9.06744 3.02716L8.36033 3.73427ZM10.3534 5.02022L11.6393 3.73426L10.9322 3.02716L9.64628 4.31311L10.3534 5.02022ZM14.6191 1.5C13.2363 1.5 11.9101 2.04933 10.9322 3.02716L11.6393 3.73426C12.4296 2.94398 13.5015 2.5 14.6191 2.5V1.5ZM18.8332 6.71405C18.8332 7.83168 18.3892 8.90354 17.5989 9.69383L18.306 10.4009C19.2838 9.42311 19.8332 8.0969 19.8332 6.71405H18.8332ZM19.8332 6.71405C19.8332 3.83441 17.4988 1.5 14.6191 1.5V2.5C16.9465 2.5 18.8332 4.38669 18.8332 6.71405H19.8332ZM5.38055 2.5C6.49818 2.5 7.57004 2.94398 8.36033 3.73427L9.06744 3.02716C8.08961 2.04934 6.7634 1.5 5.38055 1.5V2.5ZM1.1665 6.71405C1.1665 4.38669 3.0532 2.5 5.38055 2.5V1.5C2.50091 1.5 0.166504 3.83441 0.166504 6.71405H1.1665ZM2.40077 9.69382C1.61048 8.90354 1.1665 7.83168 1.1665 6.71405H0.166504C0.166504 8.0969 0.715837 9.42311 1.69366 10.4009L2.40077 9.69382Z" fill="#3BDE15"/>
</svg>
