<svg width="29" height="30" viewBox="0 0 29 30" fill="none" xmlns="http://www.w3.org/2000/svg">
<rect x="0.5" y="0.5" width="27.913" height="28.7391" rx="5.5" stroke="white"/>
<path fill-rule="evenodd" clip-rule="evenodd" d="M15.4133 12.8922V11.8925C15.411 11.7764 15.4185 11.6604 15.4356 11.5456C15.4515 11.4592 15.4862 11.3774 15.5373 11.306C15.5664 11.2624 15.6041 11.2253 15.6482 11.1969C15.6922 11.1685 15.7416 11.1494 15.7934 11.1408C15.9475 11.1037 16.1058 11.087 16.2642 11.0912H17.3332V9.10041H15.624C15.2433 9.06367 14.8591 9.10237 14.4933 9.21436C14.1276 9.32634 13.7876 9.50944 13.4927 9.75305C13.2622 10.0163 13.0862 10.3227 12.975 10.6546C12.8639 10.9864 12.8197 11.3369 12.845 11.686V12.8922H11.5654V14.883H12.8459V20.6656H15.4142V14.883H17.1233L17.3489 12.8922H15.4142H15.4133Z" fill="white"/>
</svg>
