<svg width="72" height="72" viewBox="0 0 72 72" fill="none" xmlns="http://www.w3.org/2000/svg">
<path d="M26.6597 64C29.1449 64 31.1597 61.9853 31.1597 59.5C31.1597 57.0147 29.1449 55 26.6597 55C24.1744 55 22.1597 57.0147 22.1597 59.5C22.1597 61.9853 24.1744 64 26.6597 64Z" fill="#3BDE15"/>
<path d="M54 64C56.4853 64 58.5 61.9853 58.5 59.5C58.5 57.0147 56.4853 55 54 55C51.5147 55 49.5 57.0147 49.5 59.5C49.5 61.9853 51.5147 64 54 64Z" fill="#3BDE15"/>
<path d="M66.1595 10.7401C65.9734 10.5107 65.7388 10.3253 65.4725 10.1974C65.2062 10.0694 64.9149 10.002 64.6195 10.0001H22.9795L24.2795 14.0001H61.9995L56.6595 38.0001H26.6595L17.5195 9.0601C17.4206 8.75301 17.2489 8.4744 17.0191 8.24804C16.7892 8.02167 16.508 7.85426 16.1995 7.7601L7.99949 5.2401C7.74735 5.16262 7.48242 5.13556 7.21983 5.16046C6.95723 5.18537 6.70211 5.26176 6.46904 5.38526C5.99832 5.63468 5.64597 6.06088 5.48949 6.5701C5.33301 7.07931 5.38523 7.62983 5.63465 8.10055C5.88407 8.57126 6.31027 8.92362 6.81949 9.0801L13.9995 11.2801L23.1795 40.2801L19.8995 42.9601L19.6395 43.2201C18.8282 44.1551 18.3683 45.3437 18.3391 46.5813C18.3099 47.8189 18.7132 49.0279 19.4795 50.0001C20.0246 50.663 20.7173 51.1892 21.5022 51.5364C22.287 51.8837 23.1423 52.0425 23.9995 52.0001H57.3795C57.9099 52.0001 58.4186 51.7894 58.7937 51.4143C59.1688 51.0392 59.3795 50.5305 59.3795 50.0001C59.3795 49.4697 59.1688 48.961 58.7937 48.5859C58.4186 48.2108 57.9099 48.0001 57.3795 48.0001H23.6795C23.4492 47.9922 23.2248 47.9251 23.028 47.8052C22.8312 47.6853 22.6687 47.5167 22.5561 47.3156C22.4435 47.1145 22.3846 46.8878 22.3852 46.6574C22.3858 46.427 22.4459 46.2006 22.5595 46.0001L27.3795 42.0001H58.2595C58.7218 42.0114 59.1738 41.8621 59.5384 41.5777C59.9031 41.2933 60.1579 40.8913 60.2595 40.4401L66.5995 12.4401C66.6603 12.1419 66.6523 11.8338 66.576 11.5392C66.4998 11.2446 66.3573 10.9713 66.1595 10.7401V10.7401Z" fill="#3BDE15"/>
</svg>
