<svg width="72" height="72" viewBox="0 0 72 72" fill="none" xmlns="http://www.w3.org/2000/svg">
<path d="M36 5.99994C27.729 5.99994 21 12.7289 21 20.9999C21 29.2709 27.729 35.9999 36 35.9999C44.271 35.9999 51 29.2709 51 20.9999C51 12.7289 44.271 5.99994 36 5.99994ZM36 29.9999C31.038 29.9999 27 25.9619 27 20.9999C27 16.0379 31.038 11.9999 36 11.9999C40.962 11.9999 45 16.0379 45 20.9999C45 25.9619 40.962 29.9999 36 29.9999ZM63 62.9999V59.9999C63 48.4229 53.577 38.9999 42 38.9999H30C18.42 38.9999 9 48.4229 9 59.9999V62.9999H15V59.9999C15 51.7289 21.729 44.9999 30 44.9999H42C50.271 44.9999 57 51.7289 57 59.9999V62.9999H63Z" fill="#3BDE15"/>
</svg>
