<svg width="72" height="72" viewBox="0 0 72 72" fill="none" xmlns="http://www.w3.org/2000/svg">
<path d="M26.25 24.7499C26.25 25.5456 25.9339 26.3087 25.3713 26.8713C24.8087 27.4339 24.0456 27.7499 23.25 27.7499C22.4544 27.7499 21.6913 27.4339 21.1287 26.8713C20.5661 26.3087 20.25 25.5456 20.25 24.7499C20.25 23.9543 20.5661 23.1912 21.1287 22.6286C21.6913 22.066 22.4544 21.7499 23.25 21.7499C24.0456 21.7499 24.8087 22.066 25.3713 22.6286C25.9339 23.1912 26.25 23.9543 26.25 24.7499Z" fill="#3BDE15"/>
<path d="M31.5 24.75C31.5 24.1533 31.7371 23.581 32.159 23.159C32.581 22.7371 33.1533 22.5 33.75 22.5H50.25C50.8467 22.5 51.419 22.7371 51.841 23.159C52.2629 23.581 52.5 24.1533 52.5 24.75C52.5 25.3467 52.2629 25.919 51.841 26.341C51.419 26.7629 50.8467 27 50.25 27H33.75C33.1533 27 32.581 26.7629 32.159 26.341C31.7371 25.919 31.5 25.3467 31.5 24.75Z" fill="#3BDE15"/>
<path d="M31.5 36C31.5 35.4033 31.7371 34.831 32.159 34.409C32.581 33.9871 33.1533 33.75 33.75 33.75H50.25C50.8467 33.75 51.419 33.9871 51.841 34.409C52.2629 34.831 52.5 35.4033 52.5 36C52.5 36.5967 52.2629 37.169 51.841 37.591C51.419 38.0129 50.8467 38.25 50.25 38.25H33.75C33.1533 38.25 32.581 38.0129 32.159 37.591C31.7371 37.169 31.5 36.5967 31.5 36Z" fill="#3BDE15"/>
<path d="M33.75 45C33.1533 45 32.581 45.2371 32.159 45.659C31.7371 46.081 31.5 46.6533 31.5 47.25C31.5 47.8467 31.7371 48.419 32.159 48.841C32.581 49.2629 33.1533 49.5 33.75 49.5H50.25C50.8467 49.5 51.419 49.2629 51.841 48.841C52.2629 48.419 52.5 47.8467 52.5 47.25C52.5 46.6533 52.2629 46.081 51.841 45.659C51.419 45.2371 50.8467 45 50.25 45H33.75Z" fill="#3BDE15"/>
<path d="M23.25 38.9999C24.0456 38.9999 24.8087 38.6839 25.3713 38.1213C25.9339 37.5586 26.25 36.7956 26.25 35.9999C26.25 35.2043 25.9339 34.4412 25.3713 33.8786C24.8087 33.316 24.0456 32.9999 23.25 32.9999C22.4544 32.9999 21.6913 33.316 21.1287 33.8786C20.5661 34.4412 20.25 35.2043 20.25 35.9999C20.25 36.7956 20.5661 37.5586 21.1287 38.1213C21.6913 38.6839 22.4544 38.9999 23.25 38.9999Z" fill="#3BDE15"/>
<path d="M26.25 47.2499C26.25 48.0456 25.9339 48.8087 25.3713 49.3713C24.8087 49.9339 24.0456 50.2499 23.25 50.2499C22.4544 50.2499 21.6913 49.9339 21.1287 49.3713C20.5661 48.8087 20.25 48.0456 20.25 47.2499C20.25 46.4543 20.5661 45.6912 21.1287 45.1286C21.6913 44.566 22.4544 44.2499 23.25 44.2499C24.0456 44.2499 24.8087 44.566 25.3713 45.1286C25.9339 45.6912 26.25 46.4543 26.25 47.2499V47.2499Z" fill="#3BDE15"/>
<path d="M15.75 9C13.9598 9 12.2429 9.71116 10.977 10.977C9.71116 12.2429 9 13.9598 9 15.75V56.25C9 58.0402 9.71116 59.7571 10.977 61.023C12.2429 62.2888 13.9598 63 15.75 63H56.25C58.0402 63 59.7571 62.2888 61.023 61.023C62.2888 59.7571 63 58.0402 63 56.25V15.75C63 13.9598 62.2888 12.2429 61.023 10.977C59.7571 9.71116 58.0402 9 56.25 9H15.75ZM13.5 15.75C13.5 15.1533 13.7371 14.581 14.159 14.159C14.581 13.7371 15.1533 13.5 15.75 13.5H56.25C56.8467 13.5 57.419 13.7371 57.841 14.159C58.2629 14.581 58.5 15.1533 58.5 15.75V56.25C58.5 56.8467 58.2629 57.419 57.841 57.841C57.419 58.2629 56.8467 58.5 56.25 58.5H15.75C15.1533 58.5 14.581 58.2629 14.159 57.841C13.7371 57.419 13.5 56.8467 13.5 56.25V15.75Z" fill="#3BDE15"/>
</svg>
