<svg width="30" height="30" viewBox="0 0 30 30" fill="none" xmlns="http://www.w3.org/2000/svg">
<rect x="0.891113" y="0.5" width="27.913" height="28.7391" rx="5.5" stroke="white"/>
<g clip-path="url(#clip0)">
<path fill-rule="evenodd" clip-rule="evenodd" d="M20.2172 16.4962V20.6515H17.7389V16.7772C17.7389 15.8024 17.3804 15.1333 16.4832 15.1333C16.2066 15.1338 15.9367 15.2186 15.7095 15.3765C15.4823 15.5344 15.3087 15.7579 15.2119 16.017C15.1481 16.2057 15.1201 16.4048 15.1293 16.6037V20.6515H12.651C12.651 20.6515 12.6849 14.0841 12.651 13.4067H15.1293V14.431C15.1243 14.4393 15.1177 14.4476 15.1128 14.4558H15.1293V14.431C15.3583 14.0486 15.6866 13.7354 16.0793 13.5245C16.472 13.3136 16.9145 13.2129 17.3597 13.2332C18.9937 13.2332 20.2172 14.2741 20.2172 16.4962ZM10.0563 9.91235C9.88147 9.89223 9.70433 9.90896 9.53638 9.96156C9.36843 10.0142 9.21338 10.1014 9.08126 10.2177C8.94914 10.334 8.84289 10.4767 8.76936 10.6366C8.69583 10.7965 8.65667 10.9701 8.6544 11.146C8.65214 11.322 8.68681 11.4966 8.7562 11.6583C8.82559 11.82 8.92815 11.9654 9.05723 12.0851C9.18632 12.2047 9.33908 12.2958 9.50562 12.3527C9.67216 12.4096 9.84879 12.431 10.0241 12.4154H10.0406C10.2163 12.4357 10.3943 12.4187 10.5629 12.3656C10.7316 12.3125 10.8872 12.2245 11.0195 12.1073C11.1519 11.99 11.2582 11.8462 11.3312 11.6851C11.4043 11.5241 11.4427 11.3495 11.4438 11.1727C11.4449 10.9958 11.4087 10.8207 11.3376 10.6588C11.2666 10.4968 11.1622 10.3517 11.0313 10.2328C10.9004 10.1139 10.746 10.0238 10.578 9.96862C10.41 9.91341 10.2322 9.8943 10.0563 9.91235ZM8.80065 20.6515H11.2789V13.4067H8.80065V20.6515Z" fill="white"/>
</g>
<defs>
<clipPath id="clip0">
<rect width="11.5652" height="10.7391" fill="white" transform="translate(8.65186 9.91304)"/>
</clipPath>
</defs>
</svg>
