<svg width="30" height="30" viewBox="0 0 30 30" fill="none" xmlns="http://www.w3.org/2000/svg">
<rect x="1.1958" y="0.5" width="27.913" height="28.7391" rx="5.5" stroke="white"/>
<g clip-path="url(#clip0)">
<path fill-rule="evenodd" clip-rule="evenodd" d="M17.3967 9.08696H12.0816C11.2536 9.08827 10.4599 9.41754 9.87419 10.0028C9.28848 10.588 8.95851 11.3816 8.95654 12.2096V17.5295C8.95851 18.3575 9.28848 19.1511 9.87419 19.7363C10.4599 20.3216 11.2536 20.6509 12.0816 20.6522H17.3967C18.2247 20.6509 19.0184 20.3216 19.6041 19.7363C20.1898 19.1511 20.5198 18.3575 20.5218 17.5295V12.2096C20.5198 11.3816 20.1898 10.588 19.6041 10.0028C19.0184 9.41754 18.2247 9.08827 17.3967 9.08696ZM19.5874 17.5295C19.5864 18.1101 19.3551 18.6665 18.9445 19.0768C18.5338 19.4872 17.9772 19.7181 17.3967 19.7188H12.0816C11.5011 19.7181 10.9445 19.4872 10.5338 19.0768C10.1232 18.6665 9.89195 18.1101 9.89086 17.5295V12.2096C9.89195 11.629 10.1232 11.0726 10.5338 10.6623C10.9445 10.2519 11.5011 10.021 12.0816 10.0203H17.3967C17.9772 10.021 18.5338 10.2519 18.9445 10.6623C19.3551 11.0726 19.5864 11.629 19.5874 12.2096V17.5295ZM17.3273 14.4648C17.2468 13.9143 16.9906 13.4047 16.5968 13.0117C16.2031 12.6187 15.6929 12.3635 15.1423 12.284C14.8904 12.2427 14.6334 12.2427 14.3814 12.284C13.7347 12.38 13.1482 12.7168 12.7394 13.2271C12.3307 13.7373 12.1299 14.3833 12.1773 15.0353C12.2248 15.6874 12.5169 16.2975 12.9953 16.7432C13.4736 17.1889 14.1027 17.4374 14.7565 17.4388C14.8855 17.4387 15.0144 17.4304 15.1423 17.414C15.8226 17.3116 16.4346 16.9436 16.8441 16.3908C17.2537 15.8381 17.4274 15.1454 17.3273 14.4648ZM15.0051 16.4887C14.6807 16.5372 14.3493 16.4883 14.0527 16.3483C13.756 16.2083 13.5077 15.9834 13.339 15.7021C13.1703 15.4208 13.0889 15.0957 13.1051 14.7681C13.1212 14.4405 13.2342 14.1251 13.4298 13.8618C13.5569 13.6842 13.7191 13.5346 13.9064 13.4223C14.0937 13.31 14.3021 13.2375 14.5186 13.2091C14.6791 13.1761 14.8446 13.1761 15.0051 13.2091C15.399 13.2666 15.7591 13.4639 16.0195 13.765C16.2798 14.0661 16.4231 14.4509 16.4231 14.849C16.4231 15.2471 16.2798 15.6317 16.0195 15.9328C15.7591 16.2339 15.399 16.4312 15.0051 16.4887ZM17.9931 11.6148C17.9503 11.5705 17.8989 11.5351 17.8422 11.511C17.7854 11.4869 17.7243 11.4745 17.6627 11.4745C17.601 11.4745 17.5399 11.4869 17.4832 11.511C17.4264 11.5351 17.3751 11.5705 17.3322 11.6148C17.2888 11.6582 17.2543 11.7096 17.2308 11.7663C17.2072 11.823 17.1951 11.8838 17.1951 11.9452C17.1951 12.0066 17.2072 12.0674 17.2308 12.1241C17.2543 12.1808 17.2888 12.2324 17.3322 12.2757C17.3751 12.3201 17.4264 12.3553 17.4832 12.3794C17.5399 12.4035 17.601 12.4159 17.6627 12.4159C17.7243 12.4159 17.7854 12.4035 17.8422 12.3794C17.8989 12.3553 17.9503 12.3201 17.9931 12.2757C18.0805 12.188 18.1295 12.069 18.1295 11.9452C18.1295 11.8213 18.0805 11.7026 17.9931 11.6148Z" fill="white"/>
</g>
<defs>
<clipPath id="clip0">
<rect width="11.5652" height="11.5652" fill="white" transform="translate(8.95654 9.08696)"/>
</clipPath>
</defs>
</svg>
