<svg width="27" height="27" viewBox="0 0 27 27" fill="none" xmlns="http://www.w3.org/2000/svg">
<path d="M18.5524 18.0169L17.7932 19.1557C17.6417 19.383 17.4413 19.5769 17.1772 19.6467C16.312 19.8753 14.0152 19.9786 10.5184 16.4817C7.02154 12.9849 7.12475 10.688 7.35335 9.8229C7.42314 9.55879 7.61709 9.35837 7.84439 9.20684L8.98317 8.44765C9.83103 7.88241 10.0601 6.73688 9.4949 5.88903L7.34412 2.66286C6.85076 1.92282 5.89965 1.64008 5.08215 1.99044L4.11192 2.40625C3.37488 2.72213 2.77366 3.28902 2.41505 4.00624C2.11544 4.60546 1.88322 5.23646 1.85176 5.90566C1.75261 8.01458 2.21504 13.2103 8.00241 18.9977C13.7898 24.7851 18.9855 25.2475 21.0944 25.1483C21.7636 25.1168 22.3946 24.8846 22.9938 24.585C23.711 24.2264 24.2779 23.6252 24.5938 22.8881L25.0096 21.9179C25.36 21.1004 25.0773 20.1493 24.3372 19.6559L21.111 17.5052C20.2632 16.9399 19.1177 17.169 18.5524 18.0169Z" stroke="#3BDE15" stroke-width="2.20909"/>
</svg>
