<svg width="29" height="30" viewBox="0 0 29 30" fill="none" xmlns="http://www.w3.org/2000/svg">
<rect x="0.586914" y="0.5" width="27.913" height="28.7391" rx="5.5" stroke="white"/>
<g clip-path="url(#clip0)">
<path fill-rule="evenodd" clip-rule="evenodd" d="M20.4201 10.9042C19.9515 11.1723 19.4423 11.362 18.9125 11.4659C18.6869 11.2346 18.417 11.0511 18.119 10.9262C17.821 10.8013 17.5009 10.7377 17.1777 10.7391C16.871 10.7337 16.5663 10.7889 16.2809 10.9014C15.9956 11.014 15.7352 11.1818 15.5147 11.3951C15.2943 11.6085 15.1181 11.8631 14.9962 12.1446C14.8743 12.4261 14.8091 12.7289 14.8044 13.0356C14.8045 13.2109 14.8253 13.3855 14.8663 13.556C13.9304 13.5135 13.0133 13.279 12.1719 12.8668C11.3306 12.4547 10.5831 11.8739 9.9759 11.1604C9.76573 11.5065 9.65484 11.9036 9.65538 12.3086C9.65571 12.6898 9.75261 13.0649 9.93708 13.3986C10.1216 13.7323 10.3876 14.0138 10.7103 14.2169C10.3356 14.2062 9.96829 14.1103 9.63637 13.9361V13.9607C9.64214 14.4978 9.83505 15.0162 10.1819 15.4263C10.5287 15.8365 11.0077 16.1129 11.5364 16.2079C11.3329 16.2649 11.1224 16.2926 10.9111 16.2904C10.7612 16.2892 10.6117 16.2754 10.4641 16.249C10.6239 16.711 10.9226 17.1123 11.3195 17.3978C11.7163 17.6832 12.1917 17.839 12.6805 17.8435C11.833 18.4861 10.7974 18.8315 9.73384 18.8265C9.54469 18.828 9.35565 18.8169 9.16797 18.7934C10.2592 19.4707 11.5185 19.8284 12.8028 19.826C13.6763 19.8475 14.5453 19.695 15.3593 19.3775C16.1733 19.0599 16.916 18.5837 17.5442 17.9764C18.1724 17.3691 18.6735 16.6428 19.0183 15.84C19.3631 15.0372 19.5448 14.1737 19.5527 13.3L19.5453 13.0025C20.0121 12.6818 20.4166 12.2788 20.739 11.813C20.3045 11.9982 19.8458 12.1205 19.3768 12.1765C19.867 11.8925 20.2376 11.4405 20.4201 10.9042Z" fill="white"/>
</g>
<defs>
<clipPath id="clip0">
<rect width="11.5652" height="9.08696" fill="white" transform="translate(9.17383 10.7391)"/>
</clipPath>
</defs>
</svg>
