<svg width="23" height="23" viewBox="0 0 23 23" fill="none" xmlns="http://www.w3.org/2000/svg">
<path d="M10.8666 6.43324H21M10.8666 16.5666H21M3.89997 3.8999H6.4333C7.13286 3.8999 7.69997 4.46701 7.69997 5.16657V7.6999C7.69997 8.39946 7.13286 8.96657 6.4333 8.96657H3.89997C3.20041 8.96657 2.6333 8.39946 2.6333 7.6999V5.16657C2.6333 4.46701 3.20041 3.8999 3.89997 3.8999ZM3.89997 14.0332H6.4333C7.13286 14.0332 7.69997 14.6003 7.69997 15.2999V17.8332C7.69997 18.5328 7.13286 19.0999 6.4333 19.0999H3.89997C3.20041 19.0999 2.6333 18.5328 2.6333 17.8332V15.2999C2.6333 14.6003 3.20041 14.0332 3.89997 14.0332Z" stroke="#A1A4B2" stroke-width="1.72"/>
</svg>
